<svg width="22" height="22" viewBox="0 0 22 22" fill="none" xmlns="http://www.w3.org/2000/svg">
<path d="M17.4083 2.06855C15.762 0.884142 13.8204 0.178489 11.7983 0.029639C9.77622 -0.119211 7.75239 0.294542 5.95064 1.22514C4.1489 2.15573 2.63948 3.5669 1.5893 5.30257C0.539132 7.03824 -0.0108586 9.03078 0.000162383 11.0598C0.0111834 13.0888 0.582786 15.0752 1.65175 16.7994C2.72072 18.5235 4.24538 19.9182 6.05713 20.8291C7.86887 21.7401 9.89709 22.1318 11.9174 21.9609C13.9378 21.7901 15.8716 21.0634 17.5049 19.8611L15.551 17.2028C14.4077 18.0444 13.0541 18.5531 11.6398 18.6727C10.2255 18.7922 8.8058 18.518 7.53758 17.8804C6.26936 17.2427 5.20209 16.2665 4.45381 15.0596C3.70554 13.8527 3.30542 12.4622 3.2977 11.0419C3.28999 9.62154 3.67498 8.22677 4.4101 7.0118C5.14522 5.79683 6.20182 4.80901 7.46304 4.1576C8.72426 3.50618 10.1409 3.21655 11.5564 3.32075C12.9719 3.42494 14.331 3.9189 15.4834 4.74799L17.4083 2.06855Z" fill="black"/>
<ellipse cx="20.1233" cy="8.03821" rx="1.87668" ry="1.87805" fill="black"/>
<ellipse cx="20.1233" cy="13.9777" rx="1.87668" ry="1.87805" fill="#FF1AA0"/>
</svg>
